<?xml version="1.0" standalone="no"?>
<!DOCTYPE svg PUBLIC "-//W3C//DTD SVG 20010904//EN"
 "http://www.w3.org/TR/2001/REC-SVG-20010904/DTD/svg10.dtd">
<svg version="1.0" xmlns="http://www.w3.org/2000/svg"
 width="1440.000000pt" height="800.000000pt" viewBox="0 0 1440.000000 800.000000"
 preserveAspectRatio="xMidYMid meet">
<metadata>
Created by potrace 1.16, written by Peter Selinger 2001-2019
</metadata>
<g transform="translate(0.000000,800.000000) scale(0.100000,-0.100000)"
fill="#000000" stroke="none">
<path d="M0 4000 l0 -4000 7200 0 7200 0 0 4000 0 4000 -7200 0 -7200 0 0
-4000z m2547 1430 c17 0 73 -53 73 -69 0 -17 -57 -13 -64 4 -7 20 -65 19 -88
-2 -24 -21 -25 -99 -1 -125 22 -25 79 -24 93 1 15 28 13 31 -20 31 -23 0 -30
4 -30 20 0 18 7 20 60 20 41 0 60 -4 60 -12 0 -36 -24 -89 -47 -108 -32 -25
-108 -27 -141 -4 -55 38 -69 135 -29 195 22 34 79 62 105 53 8 -2 20 -4 29 -4z
m2251 -40 c-3 -33 -1 -39 12 -34 36 15 62 15 85 0 23 -15 25 -22 25 -101 0
-84 0 -85 -25 -85 -24 0 -25 3 -25 63 0 73 -9 90 -41 85 -22 -3 -24 -8 -27
-75 l-3 -73 -29 0 -30 0 0 130 0 130 31 0 c30 0 31 -1 27 -40z m650 0 c-3 -33
-1 -39 12 -34 36 16 67 15 87 -3 19 -15 23 -30 24 -98 2 -80 2 -80 -24 -83
-27 -3 -27 -3 -27 60 0 74 -9 91 -41 86 -22 -3 -24 -8 -27 -75 l-3 -73 -29 0
-30 0 0 130 0 130 31 0 c30 0 31 -1 27 -40z m442 -90 l0 -130 -30 0 -30 0 0
130 0 130 30 0 30 0 0 -130z m-2950 91 c0 -10 9 -21 20 -24 11 -3 20 -13 20
-22 0 -9 -9 -19 -20 -22 -17 -4 -20 -14 -20 -54 0 -38 4 -51 20 -59 33 -17 25
-40 -14 -40 -45 0 -59 20 -64 91 -2 32 -8 59 -13 59 -5 0 -9 11 -9 25 0 14 5
25 10 25 6 0 10 9 10 20 0 16 7 20 30 20 23 0 30 -5 30 -19z m1730 0 c0 -10 9
-21 20 -24 11 -3 20 -13 20 -22 0 -9 -9 -19 -20 -22 -17 -4 -20 -14 -20 -58 0
-44 3 -54 20 -58 11 -3 20 -12 20 -21 0 -12 -10 -16 -34 -16 -47 0 -66 29 -66
97 0 29 -4 53 -10 53 -5 0 -10 11 -10 25 0 14 5 25 10 25 6 0 10 9 10 20 0 16
7 20 30 20 23 0 30 -5 30 -19z m570 0 c0 -10 9 -21 20 -24 11 -3 20 -13 20
-22 0 -9 -9 -19 -20 -22 -17 -4 -20 -14 -20 -58 0 -44 3 -54 20 -58 35 -9 24
-37 -14 -37 -45 0 -59 20 -64 91 -2 33 -8 62 -13 65 -12 7 -11 44 1 44 6 0 10
9 10 20 0 16 7 20 30 20 23 0 30 -5 30 -19z m-2422 -56 c12 -14 22 -39 22 -56
l0 -29 -65 0 c-65 0 -75 -6 -53 -28 15 -15 43 -15 67 0 10 6 26 8 36 4 17 -6
16 -8 -5 -31 -32 -34 -98 -35 -136 -2 -46 40 -34 139 20 166 33 17 88 5 114
-24z m2295 4 c13 -16 17 -39 17 -94 l0 -72 -72 -1 c-53 0 -78 4 -90 15 -40 36
-9 89 57 99 29 4 45 11 45 20 0 20 -29 29 -43 15 -6 -6 -24 -11 -39 -11 -26 0
-28 2 -18 21 24 43 110 49 143 8z m665 -4 c12 -14 22 -39 22 -56 l0 -29 -65 0
c-36 0 -65 -4 -65 -8 0 -26 61 -44 75 -22 9 14 45 13 45 -2 0 -49 -98 -66
-146 -25 -46 40 -34 139 20 166 33 17 88 5 114 -24z m208 20 c5 -13 8 -13 21
0 22 22 61 18 88 -10 33 -32 35 -110 4 -149 -22 -28 -75 -36 -97 -14 -9 9 -12
2 -12 -35 0 -46 -1 -47 -30 -47 l-30 0 0 128 c0 71 3 132 7 135 12 12 44 7 49
-8z m-2656 -405 c0 -37 2 -40 19 -30 32 16 60 12 86 -15 33 -32 35 -110 4
-149 -22 -28 -75 -36 -97 -14 -9 9 -12 9 -12 0 0 -7 -13 -12 -30 -12 l-30 0 0
130 0 130 30 0 c28 0 30 -2 30 -40z m-876 -95 l20 -70 22 70 c19 61 25 70 48
73 14 2 26 0 26 -5 0 -26 -76 -229 -91 -244 -18 -18 -89 -27 -89 -11 0 13 15
28 33 35 23 9 22 25 -13 124 -16 46 -30 89 -30 94 0 6 12 9 26 7 24 -3 29 -11
48 -73z m281 65 c33 -12 59 -72 51 -114 -10 -49 -43 -76 -91 -76 -77 0 -116
55 -94 134 15 55 73 79 134 56z m145 -65 c4 -57 8 -70 23 -73 34 -7 47 17 47
84 0 62 1 64 25 64 l25 0 0 -100 0 -100 -25 0 c-17 0 -25 6 -25 17 0 15 -1 15
-18 0 -24 -22 -69 -22 -90 0 -13 12 -18 39 -21 101 l-3 84 28 -4 c28 -3 29 -5
34 -73z m678 3 c2 -54 7 -70 22 -78 33 -17 50 12 50 86 0 62 1 64 25 64 l25 0
0 -100 0 -100 -25 0 c-17 0 -25 6 -25 17 0 15 -1 15 -18 0 -19 -18 -59 -22
-78 -9 -23 15 -34 53 -34 122 l0 71 28 -3 c26 -3 27 -5 30 -70z m300 56 c45
-31 10 -62 -37 -32 -10 6 -26 8 -36 4 -24 -9 -4 -32 37 -40 64 -13 86 -58 48
-96 -37 -37 -150 -18 -150 26 0 16 45 20 55 4 3 -5 17 -10 31 -10 33 0 31 28
-3 35 -52 11 -78 29 -81 58 -5 45 17 62 88 66 14 0 36 -6 48 -15z m212 0 c0
-14 2 -14 22 0 31 22 64 20 88 -4 17 -17 20 -33 20 -100 0 -79 0 -80 -25 -80
-24 0 -25 3 -25 63 0 73 -9 90 -41 85 -22 -3 -24 -8 -27 -75 l-3 -73 -29 0
-30 0 0 100 0 100 25 0 c16 0 25 -6 25 -16z m331 -13 c19 -20 29 -40 29 -60
l0 -31 -65 0 c-36 0 -65 -4 -65 -8 0 -26 61 -44 75 -22 7 11 55 14 55 3 0 -4
-10 -17 -22 -30 -16 -17 -33 -23 -63 -23 -53 0 -90 28 -99 73 -19 101 85 167
155 98z m197 13 c45 -31 10 -62 -38 -32 -15 9 -22 10 -31 1 -17 -17 -4 -30 36
-37 63 -12 84 -57 45 -96 -39 -39 -150 -19 -150 27 0 15 46 18 55 3 9 -15 55
-12 55 4 0 8 -18 18 -44 25 -52 13 -69 30 -64 68 5 48 88 71 136 37z m217 -4
c8 -7 15 -19 15 -26 0 -17 -41 -19 -57 -3 -6 6 -21 8 -33 4 -29 -9 -10 -31 35
-39 63 -12 84 -57 45 -96 -39 -39 -150 -19 -150 27 0 15 46 18 55 3 3 -5 17
-10 31 -10 33 0 31 28 -3 35 -58 12 -78 29 -78 65 0 27 6 37 25 48 28 14 93
10 115 -8z m243 4 c20 -14 22 -14 22 1 0 12 7 15 28 13 l27 -3 3 -100 c2 -111
-7 -142 -51 -163 -34 -17 -93 -6 -121 22 l-21 21 27 3 c15 2 36 -2 48 -8 28
-15 60 3 60 35 0 24 0 24 -30 7 -27 -15 -32 -16 -57 -2 -56 31 -62 139 -10
175 27 19 47 19 75 -1z m407 6 c33 -12 59 -72 51 -114 -10 -48 -43 -76 -91
-76 -76 0 -118 57 -96 130 18 59 74 84 136 60z m143 -60 l15 -65 17 65 c14 58
19 65 42 68 24 3 28 -1 38 -40 24 -95 25 -95 39 -24 12 58 16 66 35 66 13 0
25 -2 28 -5 2 -3 -7 -48 -20 -100 -25 -95 -25 -95 -56 -95 -31 0 -32 2 -46 62
-14 67 -19 65 -40 -19 -10 -38 -14 -43 -40 -43 -27 0 -30 4 -49 68 -12 38 -24
83 -27 101 -7 31 -6 32 21 29 26 -3 30 -8 43 -68z m-3001 -2005 c24 -17 39
-71 29 -109 -9 -37 -34 -56 -71 -56 -44 0 -65 29 -65 91 0 39 5 51 26 68 32
25 52 26 81 6z m1631 -47 c2 -32 7 -58 12 -58 6 0 10 -7 10 -15 0 -8 -4 -15
-10 -15 -5 0 -10 -7 -10 -15 0 -8 -9 -15 -20 -15 -11 0 -20 7 -20 15 0 11 -11
15 -40 15 -52 0 -53 21 -3 96 27 41 42 54 57 52 18 -3 21 -11 24 -60z m1330 2
l27 -60 27 61 c21 45 32 60 45 57 15 -3 18 -16 21 -91 3 -82 2 -87 -18 -87
-17 0 -20 7 -21 48 l-1 47 -20 -47 c-11 -27 -26 -48 -33 -48 -7 0 -22 21 -33
48 l-20 47 -1 -47 c-1 -41 -4 -48 -21 -48 -19 0 -20 7 -20 90 0 85 1 90 21 90
16 0 27 -14 47 -60z"/>
</g>
</svg>
