<svg xmlns="http://www.w3.org/2000/svg" viewBox="0 0 1026.02 555.69"><defs><style>.cls-1{font-size:57px;font-family:Poppins;letter-spacing:0.39em;}.cls-2{letter-spacing:0.43em;}.cls-3{letter-spacing:0.42em;}.cls-4{letter-spacing:0.41em;}.cls-5{letter-spacing:0.42em;}.cls-6{letter-spacing:0.42em;}.cls-7{letter-spacing:0.42em;}.cls-8{letter-spacing:0.44em;}.cls-9{letter-spacing:0.43em;}.cls-10{letter-spacing:0.4em;}.cls-11{letter-spacing:0.4em;}.cls-12{letter-spacing:0.42em;}.cls-13{letter-spacing:0.42em;}</style></defs><g id="Capa_2" data-name="Capa 2"><g id="Capa_1-2" data-name="Capa 1"><text class="cls-1" transform="translate(0 525.77)">F<tspan class="cls-2" x="55.13" y="0">r</tspan><tspan class="cls-3" x="103.62" y="0">o</tspan><tspan class="cls-4" x="164.76" y="0">n</tspan><tspan class="cls-5" x="227.96" y="0">t</tspan><tspan class="cls-6" x="275.41" y="0">e</tspan><tspan class="cls-7" x="335.24" y="0">n</tspan><tspan class="cls-8" x="399.05" y="0">d </tspan><tspan class="cls-9" x="505.64" y="0">D</tspan><tspan class="cls-10" x="572.19" y="0">e</tspan><tspan class="cls-11" x="631.21" y="0">v</tspan><tspan class="cls-12" x="689.96" y="0">el</tspan><tspan class="cls-3" x="792.04" y="0">o</tspan><tspan class="cls-13" x="853.18" y="0">p</tspan><tspan class="cls-6" x="917.17" y="0">e</tspan><tspan class="cls-8" x="977" y="0">r</tspan></text><path d="M40.46,68.72v109H68.68v34.19H31.06s.05,0,.07,0H0v-123c0-.46,0-.9,0-1.35l0-5.36V27.1H68.68V61.32H40.47Z"/><path d="M156.57,52.76Q128,27.1,83.58,27.1H63.48V61.32h20.1q25.92,0,40.72,15.79t14.82,42.38q0,26.58-14.82,42.37t-40.72,15.8H63.48v34.22h20.1q44.43,0,73-25.8t28.55-66.72Q185.12,78.42,156.57,52.76Z"/><path d="M243.63,45.49a26.81,26.81,0,0,1-37.55,0,25.65,25.65,0,0,1-7.67-18.91,25.69,25.69,0,0,1,7.67-18.91,26.81,26.81,0,0,1,37.55,0,25.72,25.72,0,0,1,7.67,18.91A25.69,25.69,0,0,1,243.63,45.49Z"/><rect x="202.37" y="60.24" width="45.22" height="151.44"/><path d="M337.38,211.46q-32.26,0-52.89-20.76t-20.63-55.14q0-34.38,20.5-54.74t53-20.37q32.53,0,53.95,20.1t21.42,55.81a91.22,91.22,0,0,1-1.05,14.28H310.14a25.76,25.76,0,0,0,24.73,22.21q8.6,0,12.83-1.72a23,23,0,0,0,6.21-3.43,47,47,0,0,0,5.16-5.69H408a64.79,64.79,0,0,1-25.39,35.83Q363.57,211.48,337.38,211.46Zm19.31-105.92a28.82,28.82,0,0,0-18.78-6.47q-10.85,0-18.25,6.47a28.2,28.2,0,0,0-9.25,16.8h55.27A24.07,24.07,0,0,0,356.69,105.54Z"/><path d="M442.4,190.31q-19.57-21.17-19.57-54.22T442.4,81.74Q462,60.46,490.14,60.45t43.24,20.9V60.24H578.6V208.82q0,30.94-16.93,51.57-8.46,10.58-23.13,16.4t-34,5.81q-33.85,0-53.69-13.75c-13.22-9.17-20.71-21.43-22.47-40.3h44.43c4.23,11.11,14.8,14.91,31.73,14.91q12.44,0,20.63-8.33t8.2-26.31V188.19q-16.41,23.28-43.9,23.27T442.4,190.31Zm81.19-27.51q9.78-9.53,9.79-27T523.59,109q-9.78-9.37-22.48-9.38t-22.48,9.52q-9.78,9.51-9.78,27t9.78,26.84q9.78,9.4,22.48,9.39T523.59,162.8Z"/><path d="M695.75,60.71h45.12V211.89H695.75V188.28q-14,23.58-44.6,23.58-25.32,0-41-17.15t-15.7-46.63V60.71h44.86v81.2q0,14.47,7.52,22.38t20.71,7.91q13.2,0,20.72-7.91t7.52-22.38Z"/><polygon points="546.45 246.87 546.45 265.44 512.79 279.55 512.79 263.07 546.45 246.87"/><path d="M447.72,286.38A23.58,23.58,0,1,1,454.38,270,22.17,22.17,0,0,1,447.72,286.38Z"/><rect x="411.88" y="299.2" width="39.29" height="131.55"/><path d="M528.82,430.57q-28,0-46-18T465,364.63q0-29.86,17.8-47.56t46.07-17.69q28.26,0,46.87,17.46t18.6,48.48a79.07,79.07,0,0,1-.91,12.41H505.15A22.41,22.41,0,0,0,526.64,397q7.46,0,11.14-1.5a19.92,19.92,0,0,0,5.4-3,40.71,40.71,0,0,0,4.48-4.94h42.5a56.37,56.37,0,0,1-22.06,31.13Q551.57,430.58,528.82,430.57Zm16.77-92a25,25,0,0,0-16.31-5.63,23.16,23.16,0,0,0-15.85,5.63,24.43,24.43,0,0,0-8,14.58h48A20.87,20.87,0,0,0,545.59,338.56Z"/><path d="M838.28,430.57q-28,0-45.95-18t-17.92-47.9q0-29.86,17.81-47.56t46.06-17.69q28.26,0,46.87,17.46t18.61,48.48a79,79,0,0,1-.92,12.41H814.62A22.39,22.39,0,0,0,836.1,397q7.47,0,11.14-1.5a19.92,19.92,0,0,0,5.4-3,40.71,40.71,0,0,0,4.48-4.94h42.5a56.3,56.3,0,0,1-22,31.13Q861,430.58,838.28,430.57Zm16.77-92a24.93,24.93,0,0,0-16.31-5.63,23.18,23.18,0,0,0-15.85,5.63,24.47,24.47,0,0,0-8,14.58h48A20.83,20.83,0,0,0,855.05,338.56Z"/><path d="M24,409.75Q0,386.42,0,350.59t24-59.16q24-23.32,58.7-23.32,26.88,0,47.78,14.24t29.18,39.52H112.8q-9.18-17.69-29.4-17.69T51.58,316.81Q40,329.46,40,350.59t11.61,33.77Q63.18,397,82.71,397q14,0,22.86-7a33.81,33.81,0,0,0,11.83-18.73H71.91V341.4h87.76v29.86q-4.36,22.07-24.12,41.13a72.87,72.87,0,0,1-23.32,14.93,76.54,76.54,0,0,1-29.52,5.74Q48,433.06,24,409.75Z"/><path d="M263.65,299.2h39.29V430.82H263.65V410.26q-12.18,20.53-38.83,20.53-22,0-35.72-14.93t-13.67-40.6V299.2h39.06v70.7q0,12.6,6.54,19.48t18,6.88q11.48,0,18-6.88t6.55-19.48Z"/><path d="M381.12,398.37h14v32.17h-20c-14.39,0-25.54-2-33.42-8.39s-11.84-17.27-11.84-32.74v-53.3H317.94V303.49h11.94V270h39.29v33.53H394.9v32.62H369.17v53.3Q369.17,398.38,381.12,398.37Z"/><path d="M648.17,299.05v25.81Q662,299.21,684.92,299.2V343h-9.64q-13.56,0-20.34,6.53t-6.77,22.87v58.4H608.88V299.05Z"/><path d="M734.34,299.48v25.38q13.78-25.65,36.76-25.66V343h-9.65q-13.56,0-20.33,6.53t-6.78,22.87v58.4H695.06V299.48Z"/><path d="M1006.51,299.38V332.5l-49.16,64.83h49.16v33.12H911.17V397.33l49.17-64.83H911.17V299.38Z"/></g></g></svg>